<svg xmlns="http://www.w3.org/2000/svg" viewBox="0 0 236 236"><g fill="#000"><path transform="translate(4.9,58)" d="M30.43,33.22c0,5.74,5.42,9.88,13.39,11.64l15.78,3.19c18.65,3.83,42.24,9.56,42.24,33.79s-24.39,37.94-48.46,37.94c-29.65,0-49.1-14.83-53.24-39.69h27.1c3.03,12.12,12.59,17.69,26.78,17.69,9.25,0,19.77-3.03,19.77-12.59,0-7.49-8.93-11.16-21.52-13.87l-14.03-2.87C19.43,64.46,2.37,55.54,2.37,34.81,2.37,11.22,27.72.22,50.35.22s44.16,9.88,48.14,35.39h-26.94c-2.71-8.61-11.16-13.55-22.8-13.55-10.52,0-18.33,3.99-18.33,11.16Z"/><path transform="translate(-749.7,58)" d="M926.3,119.78c-36.03,0-57.87-22.96-57.87-59.94S891.07.22,927.1.22c29.01,0,49.42,18.81,53.4,45.11h-26.78c-3.03-15.78-14.67-22.64-27.58-22.64-16.26,0-28.85,13.55-28.85,37.14s12.59,37.46,29.17,37.46c11.8,0,24.87-5.1,28.06-22.64h26.78c-4.14,26.78-25.82,45.11-55,45.11Z"/></g></svg>